<svg xmlns="http://www.w3.org/2000/svg" xmlns:xlink="http://www.w3.org/1999/xlink" width="500" zoomAndPan="magnify" viewBox="0 0 375 374.999991" height="500" preserveAspectRatio="xMidYMid meet" version="1.0"><defs><clipPath id="b5a1e42e1f"><path d="M 113.140625 108.992188 L 300.488281 108.992188 L 300.488281 300.382812 L 113.140625 300.382812 Z M 113.140625 108.992188 " clip-rule="nonzero"/></clipPath><clipPath id="eb2b7a7f63"><path d="M 0.140625 0.992188 L 187.488281 0.992188 L 187.488281 192.382812 L 0.140625 192.382812 Z M 0.140625 0.992188 " clip-rule="nonzero"/></clipPath><clipPath id="33a5b17d53"><rect x="0" width="188" y="0" height="193"/></clipPath><clipPath id="47339d72f9"><path d="M 0.441406 79 L 222 79 L 222 300.921875 L 0.441406 300.921875 Z M 0.441406 79 " clip-rule="nonzero"/></clipPath><clipPath id="d5bb231871"><path d="M 109.316406 79.289062 L 221.894531 191.871094 L 113.265625 300.5 L 0.6875 187.917969 Z M 109.316406 79.289062 " clip-rule="nonzero"/></clipPath><clipPath id="1eac4934db"><path d="M 0.679688 0.160156 L 221.960938 0.160156 L 221.960938 221.679688 L 0.679688 221.679688 Z M 0.679688 0.160156 " clip-rule="nonzero"/></clipPath><clipPath id="9a24eaba0a"><path d="M 109.316406 0.289062 L 221.894531 112.871094 L 113.265625 221.5 L 0.6875 108.917969 Z M 109.316406 0.289062 " clip-rule="nonzero"/></clipPath><clipPath id="157cc0e957"><rect x="0" width="222" y="0" height="222"/></clipPath><clipPath id="60ed391ac5"><path d="M 0.558594 0.441406 L 191.953125 0.441406 L 191.953125 187.789062 L 0.558594 187.789062 Z M 0.558594 0.441406 " clip-rule="nonzero"/></clipPath><clipPath id="633b601914"><path d="M 0.558594 0.441406 L 191.953125 0.441406 L 191.953125 187.789062 L 0.558594 187.789062 Z M 0.558594 0.441406 " clip-rule="nonzero"/></clipPath><clipPath id="dbdd012c3b"><rect x="0" width="192" y="0" height="188"/></clipPath><clipPath id="553c414232"><rect x="0" width="301" y="0" height="301"/></clipPath></defs><g transform="matrix(1, 0, 0, 1, 37, 37)"><g clip-path="url(#553c414232)"><g clip-path="url(#b5a1e42e1f)"><g transform="matrix(1, 0, 0, 1, 113, 108)"><g clip-path="url(#33a5b17d53)"><g clip-path="url(#eb2b7a7f63)"><path fill="#ffffff" d="M 187.488281 0.992188 L 187.488281 192.726562 L 0.140625 192.726562 L 0.140625 0.992188 Z M 187.488281 0.992188 " fill-opacity="1" fill-rule="nonzero"/></g></g></g></g><g clip-path="url(#47339d72f9)"><g clip-path="url(#d5bb231871)"><g transform="matrix(1, 0, 0, 1, 0, 79)"><g clip-path="url(#157cc0e957)"><g clip-path="url(#1eac4934db)"><g clip-path="url(#9a24eaba0a)"><path fill="#ffffff" d="M 109.316406 0.289062 L 221.761719 112.738281 L 113.132812 221.363281 L 0.6875 108.917969 Z M 109.316406 0.289062 " fill-opacity="1" fill-rule="nonzero"/></g></g></g></g></g></g><g clip-path="url(#60ed391ac5)"><g><g clip-path="url(#dbdd012c3b)"><g clip-path="url(#633b601914)"><path fill="#ffffff" d="M 0.558594 0.441406 L 192.296875 0.441406 L 192.296875 187.789062 L 0.558594 187.789062 Z M 0.558594 0.441406 " fill-opacity="1" fill-rule="nonzero"/></g></g></g></g></g></g></svg>